<svg width="118" height="47" viewBox="0 0 118 47" fill="none" xmlns="http://www.w3.org/2000/svg">
<path d="M2.34 11.8H18.576V16.48H7.668V21.952H17.568V26.632H7.668V32.32H18.756V37H2.34V11.8Z" fill="#01DF01"/>
<path d="M23.272 32.648C23.5707 32.7973 23.912 32.9467 24.296 33.096C24.7013 33.2453 25.128 33.384 25.576 33.512C26.0453 33.64 26.5147 33.7467 26.984 33.832C27.4747 33.9173 27.9653 33.96 28.456 33.96C29.2027 33.96 29.7787 33.8427 30.184 33.608C30.6107 33.3733 30.824 32.936 30.824 32.296C30.824 31.784 30.5467 31.4107 29.992 31.176C29.4373 30.92 28.7547 30.6747 27.944 30.44C27.3467 30.2693 26.7173 30.0667 26.056 29.832C25.416 29.5973 24.8187 29.288 24.264 28.904C23.7307 28.4987 23.2827 27.976 22.92 27.336C22.5787 26.696 22.408 25.8853 22.408 24.904C22.408 23.2187 22.9307 21.9387 23.976 21.064C25.0213 20.168 26.5253 19.72 28.488 19.72C29.768 19.72 30.9627 19.8373 32.072 20.072C33.2027 20.2853 34.1093 20.5413 34.792 20.84L33.864 24.232C33.3093 24.0187 32.5947 23.8053 31.72 23.592C30.8667 23.3573 29.992 23.24 29.096 23.24C28.3493 23.24 27.7947 23.3573 27.432 23.592C27.0693 23.8053 26.888 24.1893 26.888 24.744C26.888 25.2347 27.1653 25.608 27.72 25.864C28.296 26.0987 28.9893 26.3333 29.8 26.568C30.3973 26.7387 31.016 26.9413 31.656 27.176C32.3173 27.3893 32.9147 27.688 33.448 28.072C33.9813 28.456 34.4187 28.9573 34.76 29.576C35.1227 30.1733 35.304 30.9307 35.304 31.848C35.304 33.64 34.7173 35.0267 33.544 36.008C32.392 36.9893 30.6533 37.48 28.328 37.48C27.0693 37.48 25.896 37.3627 24.808 37.128C23.72 36.9147 22.8347 36.5947 22.152 36.168L23.272 32.648ZM37.8128 28.616C37.8128 25.8427 38.5488 23.6667 40.0208 22.088C41.4928 20.5093 43.5941 19.72 46.3248 19.72C47.7541 19.72 49.0021 19.944 50.0688 20.392C51.1354 20.84 52.0208 21.4693 52.7248 22.28C53.4288 23.0693 53.9514 24.008 54.2928 25.096C54.6554 26.1627 54.8368 27.336 54.8368 28.616C54.8368 29.9813 54.6448 31.2187 54.2608 32.328C53.8768 33.416 53.3221 34.344 52.5968 35.112C51.8714 35.88 50.9754 36.4667 49.9088 36.872C48.8634 37.2773 47.6688 37.48 46.3248 37.48C44.8741 37.48 43.6154 37.256 42.5488 36.808C41.4821 36.36 40.5968 35.7413 39.8928 34.952C39.1888 34.1413 38.6661 33.2027 38.3248 32.136C37.9834 31.048 37.8128 29.8747 37.8128 28.616ZM42.4208 28.616C42.4208 29.32 42.4954 29.9813 42.6448 30.6C42.7941 31.2187 43.0181 31.7627 43.3168 32.232C43.6368 32.68 44.0421 33.0427 44.5328 33.32C45.0234 33.5973 45.6208 33.736 46.3248 33.736C48.9274 33.736 50.2288 32.0293 50.2288 28.616C50.2288 27.8693 50.1541 27.1867 50.0048 26.568C49.8768 25.928 49.6528 25.384 49.3328 24.936C49.0341 24.4667 48.6288 24.104 48.1168 23.848C47.6261 23.592 47.0288 23.464 46.3248 23.464C45.1088 23.464 44.1488 23.8693 43.4448 24.68C42.7621 25.4907 42.4208 26.8027 42.4208 28.616ZM62.9715 20.2V29.512C62.9715 30.8987 63.1635 31.912 63.5475 32.552C63.9315 33.192 64.6675 33.512 65.7555 33.512C66.6942 33.512 67.4835 33.2667 68.1235 32.776C68.7635 32.2853 69.2328 31.6667 69.5315 30.92V20.2H74.0115V31.88C74.0115 32.776 74.0542 33.672 74.1395 34.568C74.2462 35.464 74.3848 36.2747 74.5555 37H71.2595L70.3955 34.376H70.0435C69.4888 35.272 68.6995 36.0187 67.6755 36.616C66.6515 37.192 65.4782 37.48 64.1555 37.48C63.2382 37.48 62.4275 37.3627 61.7235 37.128C61.0195 36.8933 60.4222 36.5093 59.9315 35.976C59.4622 35.4213 59.0995 34.696 58.8435 33.8C58.6088 32.904 58.4915 31.7947 58.4915 30.472V20.2H62.9715ZM90.3508 37V27.784C90.3508 26.3333 90.1268 25.288 89.6788 24.648C89.2308 24.008 88.4414 23.688 87.3108 23.688C86.3508 23.688 85.5294 23.9547 84.8468 24.488C84.1854 25 83.7268 25.6613 83.4708 26.472C83.4708 28.2213 83.4708 29.9813 83.4708 31.752C83.4921 33.5013 83.5028 35.2507 83.5028 37H79.0228V20.2H82.5428L83.0228 22.6H83.5028C84.0574 21.8107 84.7934 21.1387 85.7108 20.584C86.6281 20.008 87.8228 19.72 89.2948 19.72C90.1908 19.72 90.9801 19.8373 91.6628 20.072C92.3668 20.2853 92.9428 20.6693 93.3908 21.224C93.8601 21.7573 94.2121 22.4827 94.4468 23.4C94.7028 24.3173 94.8308 25.4693 94.8308 26.856V37H90.3508ZM114.725 31.112C114.725 32.008 114.736 32.936 114.757 33.896C114.778 34.856 114.874 35.9013 115.045 37.032H111.941L111.301 34.696H110.885C110.394 35.5493 109.69 36.232 108.773 36.744C107.877 37.2347 106.8 37.48 105.541 37.48C103.301 37.48 101.562 36.7867 100.325 35.4C99.0877 33.992 98.469 31.8267 98.469 28.904C98.469 27.496 98.6397 26.2267 98.981 25.096C99.3437 23.9653 99.8663 23.0053 100.549 22.216C101.253 21.4267 102.117 20.8187 103.141 20.392C104.165 19.9653 105.349 19.752 106.693 19.752C107.44 19.752 108.08 19.816 108.613 19.944C109.168 20.0507 109.712 20.1893 110.245 20.36V14.6H114.725V31.112ZM106.693 33.736C107.696 33.736 108.474 33.512 109.029 33.064C109.584 32.5947 109.989 31.9333 110.245 31.08V24.36C109.861 24.0613 109.445 23.848 108.997 23.72C108.57 23.5707 108.005 23.496 107.301 23.496C105.872 23.496 104.805 23.912 104.101 24.744C103.418 25.576 103.077 27.0053 103.077 29.032C103.077 30.44 103.365 31.5813 103.941 32.456C104.538 33.3093 105.456 33.736 106.693 33.736Z" fill="white"/>
</svg>
